<?xml version="1.0" encoding="utf-8"?>
<!-- Generator: Adobe Illustrator 24.1.3, SVG Export Plug-In . SVG Version: 6.00 Build 0)  -->
<svg version="1.1" id="レイヤー_1" xmlns="http://www.w3.org/2000/svg" xmlns:xlink="http://www.w3.org/1999/xlink" x="0px"
	 y="0px" viewBox="0 0 283.46 113.39" style="enable-background:new 0 0 283.46 113.39;" xml:space="preserve">
<style type="text/css">
	.st0{fill:#FFFFFF;}
</style>
<g>
	<g>
		<path class="st0" d="M27.93,31.22c0.85-0.4,1.59-0.57,2.05-0.63c0.91,0,2.05,0.57,2.05,1.65c0.06,0.97-0.57,1.54-1.82,1.99
			c-2.56,1.02-6.54,2.33-9.32,3.07c-3.41,9.32-6.71,18.7-10.52,27.85c-0.57,1.42-1.42,1.93-2.33,1.93c-0.45,0-0.97-0.28-1.31-0.62
			c-0.34-0.46-0.51-0.85-0.57-1.54c0-0.57,0.28-1.25,0.74-2.16c3.98-8.07,7.33-16.09,10.63-24.73c-2.56,0.57-4.55,0.85-6.03,0.85
			c-1.93,0-4.04-0.68-5.51-1.88c-0.91-0.74-1.53-1.36-1.53-1.99c0-0.34,0.34-0.57,0.51-0.57c0.28,0,0.45,0.06,0.85,0.28
			c1.53,1.02,3.01,1.36,4.83,1.36s5.4-0.8,8.07-1.53c0.68-2.22,1.19-3.87,1.59-5.4c0.28-0.91,0.45-1.99,0.45-2.79
			c0-0.62-0.28-1.19-1.02-1.53c-0.85-0.4-1.48-0.57-2.27-0.74c-0.4-0.11-0.51-0.28-0.51-0.51c0-0.28,0.28-0.46,0.51-0.57
			c0.85-0.51,1.65-0.63,2.16-0.63c0.97,0,3.64,0.91,5.12,2.16c0.97,0.74,1.08,1.25,1.08,1.76c0,0.63-0.28,1.08-0.74,1.42
			c-0.8,0.63-1.08,1.14-1.65,2.5c-0.74,1.71-1.02,2.5-1.31,3.41C24,32.98,26.11,32.13,27.93,31.22z M25.14,54.75
			c0.34-0.62,0.68-1.02,1.02-1.02c0.23,0,0.45,0.17,0.45,0.4c0,0.28-0.11,0.62-0.17,0.91c-0.23,0.8-0.28,1.82-0.28,2.61
			c0,1.59,0.63,3.01,1.88,3.98c1.76,1.36,4.66,1.93,7.39,1.93c3.01,0,5-0.28,5.91-0.57c0.85-0.28,1.48-0.45,2.39-0.45
			c0.8,0,1.82,0.17,2.56,0.57c0.8,0.46,1.19,1.02,1.19,1.93c0,1.08-1.08,1.59-3.01,1.88c-1.53,0.17-4.21,0.34-6.14,0.34
			c-3.81,0.06-8.13-0.51-11.08-2.67c-1.88-1.36-3.01-3.13-3.01-5.91C24.23,57.03,24.63,55.61,25.14,54.75z M34.24,42.42
			c-2.1,0.23-4.38,0.63-7.22,1.93c-0.17,0.06-0.45,0.17-0.63,0.17c-0.28,0-0.57-0.23-0.57-0.45c0-0.28,0.11-0.51,0.4-0.74
			c1.08-0.91,2.22-1.71,3.81-2.33c2.39-0.97,4.83-1.36,6.94-1.36c2.5-0.06,5.06,0.45,6.65,1.14c1.31,0.57,2.05,1.08,2.05,2.33
			c0,0.85-0.62,1.42-1.59,1.42c-0.57,0-1.02-0.17-1.31-0.28c-0.68-0.23-1.19-0.4-1.82-0.4c-0.51,0-1.31,0.17-2.33,0.8
			c-1.42,0.85-3.64,2.39-5.57,3.58c-0.34,0.23-0.57,0.34-0.85,0.34c-0.17,0-0.51-0.4-0.51-0.62c0-0.11,0.11-0.4,0.4-0.63
			c1.31-1.19,3.24-2.96,5.4-4.6c0.23-0.17,0.17-0.34-0.17-0.34C36.68,42.36,35.32,42.31,34.24,42.42z"/>
		<path class="st0" d="M82.84,35.6c1.82,0,3.35,0.74,4.49,2.33c1.25,1.76,1.65,4.26,1.65,6.76c0,4.09-0.91,8.47-2.22,12.05
			c-0.97,2.73-2.44,5.4-4.43,7.28c-1.76,1.65-3.3,2.56-5.06,2.56c-1.31,0-1.88-0.34-2.1-1.48c-0.17-0.97-0.34-1.42-0.85-2.05
			c-0.91-1.08-1.93-2.16-3.3-3.58c-0.23-0.23-0.28-0.4-0.28-0.57c0-0.23,0.28-0.63,0.57-0.63c0.23,0,0.4,0.11,0.62,0.28
			c1.65,1.14,3.01,2.05,4.49,2.9c0.45,0.23,1.02,0.4,1.65,0.4c0.74,0,1.48-0.34,2.16-1.08c1.88-1.99,3.07-4.66,4.04-7.73
			c0.97-3.24,1.48-7.16,1.48-9.66s-0.28-3.92-0.97-4.77c-0.57-0.74-1.19-0.97-2.44-0.97c-1.19,0-2.67,0.34-3.92,0.68
			c-1.76,3.64-3.35,7.22-5.06,10.52c-2.96,5.74-5.51,10.74-8.58,15.97c-0.46,0.74-1.02,1.14-1.99,1.14c-1.02,0-1.82-0.68-1.82-1.59
			c0-0.74,0.23-1.36,0.74-2.1c3.35-5.06,6.42-10.17,9.27-15.4c1.48-2.79,2.73-5.12,3.87-7.5c-2.1,0.74-4.32,1.65-5.97,2.33
			c-0.8,0.34-1.25,0.51-1.65,0.85s-0.8,0.62-1.42,0.62c-0.8,0-1.65-0.45-2.56-1.36c-1.19-1.19-2.16-2.67-2.16-3.98
			c0-0.63,0.28-1.36,0.57-1.36c0.23,0,0.34,0.11,0.63,0.51c1.02,1.31,1.88,2.1,2.78,2.1c1.19,0,2.22-0.28,4.09-0.74
			c1.99-0.45,4.15-1.02,6.88-1.76c1.14-2.61,1.93-4.83,2.56-6.88c0.28-0.85,0.4-1.48,0.4-2.22c0-0.51-0.11-0.8-0.85-1.31
			c-0.51-0.34-1.59-0.68-2.5-0.85c-0.57-0.11-0.8-0.23-0.8-0.51s0.34-0.51,0.74-0.74c0.46-0.23,1.25-0.45,2.05-0.45
			c1.88,0,3.92,0.91,5.68,2.39c0.68,0.57,0.91,1.25,0.91,1.88c0,0.57-0.34,0.97-1.08,1.31c-0.4,0.17-0.91,0.85-1.36,1.82
			c-0.68,1.53-1.48,3.18-2.27,4.95C80.57,35.71,81.87,35.6,82.84,35.6z M105.46,53.11c-0.57,0-1.02-0.17-1.65-0.63
			c-0.63-0.45-1.19-0.63-2.1-0.63c-1.82,0-3.81,0.11-6.42,0.28c-0.51,0.06-0.8-0.34-0.8-0.74c0-0.34,0.17-0.57,0.63-0.68
			c2.44-0.51,4.43-0.91,6.37-1.59c0.68-0.23,0.91-0.4,0.91-1.02c0-1.02-0.85-2.96-1.93-4.38c-2.16-2.84-3.98-4.43-6.25-5.97
			c-0.34-0.23-0.57-0.57-0.57-0.8c0-0.28,0.34-0.57,0.85-0.57c0.11,0,0.28,0,0.51,0.11c2.61,1.08,5.46,2.73,7.96,5.4
			c2.39,2.5,4.55,5.46,4.55,8.75C107.51,52.37,106.54,53.11,105.46,53.11z"/>
		<path class="st0" d="M140.48,34.35c0,1.82-0.74,4.66-1.48,6.65c-2.05,5.4-4.95,10.69-8.13,14.72c-1.59,2.05-3.35,3.69-5.74,3.69
			c-1.65,0-3.07-0.74-4.26-2.27c-1.59-1.99-2.62-4.43-2.62-8.41c0-4.38,1.82-9.55,5.34-13.41c3.69-4.04,9.89-7.45,18.19-7.45
			c5.85,0,10.4,2.1,13.19,4.38c4.43,3.58,6.31,8.24,6.31,12.9c0,6.42-2.44,10.06-6.14,13.3c-4.21,3.64-11.99,6.03-18.93,6.37
			c-0.4,0-0.8-0.34-0.8-0.68c0-0.45,0.28-0.63,1.02-0.8c5.91-1.14,11.94-3.75,15.46-7.22c3.07-3.13,5.12-6.76,5.12-11.77
			c0-3.3-1.25-8.01-4.77-10.86c-2.67-2.1-6.03-3.69-10.57-3.69c-1.19,0-2.05,0-3.01,0.11C139.86,31.22,140.48,32.81,140.48,34.35z
			 M126.16,35.71c-3.18,3.18-4.95,7.84-4.95,12.28c0,2.44,0.45,3.87,1.25,5.29c0.63,1.14,1.53,1.93,2.67,1.93
			c1.19,0,2.33-1.02,3.98-3.24c3.35-4.43,6.48-10.17,8.13-14.78c0.68-1.88,0.8-3.3,0.8-4.49c0-1.36-0.45-2.16-0.91-2.61
			C132.07,30.94,128.49,33.38,126.16,35.71z"/>
		<path class="st0" d="M182.49,36.96v28.48h29.1c2.9-3.47,3.3-3.75,3.64-3.75c0.4,0,0.8,0.28,3.69,2.67
			c1.42,1.19,1.71,1.59,1.71,1.93s-0.23,0.57-0.74,0.57h-37.4v2.39c0,1.42-0.8,2.05-2.56,2.05c-1.42,0-1.93-0.51-1.93-1.71
			c0-1.71,0.34-7.16,0.34-31.15v-1.48h-2.73c-1.71,0-3.01,0.06-4.83,0.34l-0.57-2.16c2.16,0.28,3.58,0.4,5.4,0.4h2.73
			c0-8.7-0.06-11.94-0.34-14.89c6.08,0.74,6.42,0.85,6.42,1.7c0,0.46-0.34,0.85-1.93,1.48v11.71h10.17v-1.59
			c0-8.24,0-10.8-0.23-13.87c5.17,0.57,6.08,0.8,6.08,1.59c0,0.46-0.28,0.8-1.76,1.42v12.45h10.63v-6.71c0-4.72-0.11-6.59-0.28-8.75
			c5.12,0.51,6.25,0.8,6.25,1.59c0,0.46-0.34,0.8-1.88,1.48v12.39h3.47c2.61-3.13,3.07-3.41,3.41-3.41c0.4,0,0.85,0.28,3.58,2.44
			c1.31,1.02,1.59,1.42,1.59,1.76c0,0.4-0.23,0.62-0.8,0.62h-11.25c0.06,10.91,0.23,16.31,0.23,18.13c0,1.25-0.85,1.82-2.5,1.82
			c-1.31,0-1.82-0.45-1.82-1.53v-2.44h-10.63v2.33c0,1.31-0.91,1.88-2.56,1.88c-1.31,0-1.76-0.45-1.76-1.48
			c0-1.02,0.17-5.17,0.23-18.7H182.49z M196.76,51.51h10.63V36.96h-10.63V51.51z"/>
		<path class="st0" d="M257.13,42.36c2.96,3.52,6.08,5.85,9.66,7.5c3.41,1.59,7.96,2.9,13.53,3.41c0.34,0.06,0.28,0.68-0.06,0.74
			c-1.53,0.28-2.22,0.91-2.9,2.67c-0.28,0.85-0.45,1.02-0.91,1.02c-0.63,0-1.36-0.17-2.33-0.45c-2.56-0.8-5.63-2.33-8.24-4.09
			c-0.57-0.4-1.19-0.8-1.71-1.19c-0.11,0.34-0.45,0.68-1.65,1.14v4.15c0,7.28,0.23,11.08,0.23,12.16c0,1.31-0.85,1.93-2.61,1.93
			c-1.48,0-1.88-0.57-1.88-1.71c0-0.85,0.23-3.75,0.23-10.4c0-4.77,0-6.37-0.28-8.98c2.39,0.28,3.87,0.51,4.72,0.74
			c-2.9-2.5-5.17-5.46-7.22-8.64h-4.09c-1.88,3.13-4.32,5.74-7.16,8.01c4.32,0.51,5.06,0.74,5.06,1.42c0,0.4-0.34,0.74-1.71,1.31
			c-0.34,5.63-1.59,9.32-4.21,12.28c-2.61,2.96-6.71,4.89-12.68,6.25c-0.34,0.06-0.63-0.68-0.28-0.8c4.83-2.1,8.07-4.55,10.17-7.67
			c1.88-2.84,2.67-6.31,2.67-9.83c0-0.68,0-1.36-0.11-2.1c-4.15,2.96-9.32,5.23-15.52,6.65c-0.4,0.11-0.74-0.85-0.34-0.97
			c8.64-3.07,15.63-8.58,19.04-14.55h-7.5v0.8c0,1.36-0.8,1.82-2.44,1.82c-1.31,0-1.76-0.4-1.76-1.53c0-1.65,0.17-4.26,0.17-13.41
			c0-4.6-0.06-7.05-0.23-9.83c2.1,0.85,2.96,1.31,4.83,2.39h27.68c1.76-1.88,2.05-2.1,2.39-2.1c0.4,0,0.74,0.23,2.61,1.65
			c0.85,0.74,1.08,1.02,1.08,1.36c0,0.51-0.17,0.8-1.53,1.82v4.38c0,8.13,0.23,12.05,0.23,13.3c0,1.42-0.8,1.99-2.44,1.99
			c-1.25,0-1.88-0.4-1.88-1.59v-1.02H257.13z M239.06,24v7.62h12.16V24H239.06z M239.06,40.94h12.16v-7.9h-12.16V40.94z M267.76,24
			H255.2v7.62h12.56V24z M267.76,33.04H255.2v7.9h12.56V33.04z"/>
	</g>
	<g>
		<path class="st0" d="M85.46,92.41c-0.17,0-0.21-0.02-0.21-0.27c0-0.21,0.02-0.27,0.23-0.31c0.56-0.1,1.18-0.41,1.59-0.85
			c0.33-0.35,0.68-0.93,0.87-1.43c0.06-0.12,0.1-0.19,0.33-0.19c0.25,0,0.27,0.06,0.27,0.21c-0.02,0.58-0.06,1.41-0.06,2.03
			c0.83,0,2.01-0.02,2.85-0.04c0.1,0,0.12,0.02,0.1,0.12l-0.19,0.58c-0.04,0.08-0.1,0.14-0.21,0.14c-0.74-0.04-1.84-0.06-2.6-0.06
			L88.4,97.5c0,1.14,0.12,1.7,0.41,2.09c0.35,0.48,0.83,0.54,1.1,0.54c0.46,0,0.93-0.21,1.3-0.56c0.1-0.08,0.23-0.06,0.33,0.06
			c0.12,0.17,0.17,0.23,0.04,0.35c-0.58,0.62-1.32,1.1-2.25,1.1c-0.81,0-1.49-0.17-2.01-0.7c-0.41-0.48-0.64-1.1-0.64-2.25
			c0-0.95,0.04-1.88,0.04-2.85l0.04-2.87L85.46,92.41z"/>
		<path class="st0" d="M99.66,98.47c-0.02,1.28,0.29,1.78,0.79,1.78c0.21,0,0.35-0.06,0.56-0.19c0.08-0.04,0.19-0.04,0.27,0.1
			c0.1,0.17,0.08,0.23-0.04,0.31c-0.37,0.27-0.89,0.5-1.57,0.5c-0.74,0-1.3-0.41-1.53-1.05c-0.74,0.68-1.51,1.16-2.91,1.16
			c-1.86,0-2.46-1.2-2.46-2.13c0-0.87,0.23-1.32,0.7-1.8c0.54-0.54,1.24-0.72,2.48-1.12c0.85-0.27,1.3-0.45,1.61-0.7
			c0.27-0.21,0.48-0.52,0.48-0.81v-0.58c0-1.49-0.41-2.13-1.3-2.13c-0.48,0-0.89,0.1-1.26,0.48c-0.27,0.23-0.35,0.56-0.35,1.05
			c0,0.56-0.6,0.93-1.43,0.93c-0.46,0-0.64-0.21-0.64-0.6c0-0.95,1.55-2.42,3.82-2.42c2.81,0,2.85,1.43,2.83,3L99.66,98.47z
			 M98.03,95.64c-0.23,0.31-0.6,0.5-1.8,0.95c-1.18,0.41-1.65,1.1-1.65,2.07c0,1.03,0.76,1.63,1.43,1.63c1.2,0,2.01-0.81,2.01-1.76
			L98.03,95.64z"/>
		<path class="st0" d="M105.12,95.86c0.35-0.33,0.68-0.62,1.07-1.01l1.16-1.16c0.64-0.64,0.93-1.01,0.83-1.32
			c-0.08-0.23-0.5-0.25-0.89-0.27c-0.12,0-0.17-0.02-0.17-0.27c0-0.19,0.04-0.23,0.17-0.23c0.62,0.02,1.38,0.02,1.98,0.02
			c0.6,0,1.28-0.04,1.84-0.06c0.12,0,0.17,0.04,0.17,0.25c0,0.23-0.04,0.27-0.17,0.27c-0.48,0.04-0.76,0.12-1.2,0.33
			c-0.39,0.19-0.74,0.48-1.63,1.28l-1.01,0.93c-0.31,0.29-0.48,0.43-0.72,0.66c1.07,1.3,2.17,2.6,3.25,3.82
			c0.37,0.39,0.72,0.74,1.1,0.95c0.31,0.15,0.58,0.17,0.95,0.21c0.14,0.02,0.19,0.04,0.19,0.25c0,0.19-0.04,0.23-0.19,0.23
			c-0.45,0-1.18-0.06-1.63-0.06c-0.48,0-0.85,0-1.34,0.02c-0.25-0.35-0.41-0.62-0.68-0.95c-1.1-1.32-1.96-2.36-3.06-3.7v1.72
			c0,1.2-0.02,1.8,0.12,2.13c0.14,0.29,0.58,0.31,1.18,0.37c0.12,0.02,0.17,0.08,0.17,0.25c0,0.19-0.04,0.23-0.17,0.23
			c-0.7-0.04-1.38-0.06-2.03-0.06c-0.66,0-1.51,0.02-2.19,0.06c-0.14,0-0.19-0.04-0.19-0.23c0-0.17,0.04-0.23,0.19-0.25
			c0.54-0.06,0.93-0.06,1.07-0.37c0.17-0.35,0.17-0.95,0.17-2.11v-9.2c0-0.72,0-1.36-0.15-1.72c-0.12-0.33-0.33-0.46-0.68-0.41
			l-0.48,0.04c-0.21,0.02-0.27,0-0.29-0.27c0-0.19,0.04-0.23,0.23-0.27c0.77-0.14,2.03-0.54,2.91-0.87c0.1,0,0.23,0.06,0.23,0.14
			c-0.06,1.47-0.1,3.04-0.1,4.96V95.86z"/>
		<path class="st0" d="M119.63,98.47c-0.02,1.28,0.29,1.78,0.79,1.78c0.21,0,0.35-0.06,0.56-0.19c0.08-0.04,0.19-0.04,0.27,0.1
			c0.1,0.17,0.08,0.23-0.04,0.31c-0.37,0.27-0.89,0.5-1.57,0.5c-0.74,0-1.3-0.41-1.53-1.05c-0.74,0.68-1.51,1.16-2.91,1.16
			c-1.86,0-2.46-1.2-2.46-2.13c0-0.87,0.23-1.32,0.7-1.8c0.54-0.54,1.24-0.72,2.48-1.12c0.85-0.27,1.3-0.45,1.61-0.7
			c0.27-0.21,0.48-0.52,0.48-0.81v-0.58c0-1.49-0.41-2.13-1.3-2.13c-0.48,0-0.89,0.1-1.26,0.48c-0.27,0.23-0.35,0.56-0.35,1.05
			c0,0.56-0.6,0.93-1.43,0.93c-0.46,0-0.64-0.21-0.64-0.6c0-0.95,1.55-2.42,3.82-2.42c2.81,0,2.85,1.43,2.83,3L119.63,98.47z
			 M118,95.64c-0.23,0.31-0.6,0.5-1.8,0.95c-1.18,0.41-1.65,1.1-1.65,2.07c0,1.03,0.76,1.63,1.43,1.63c1.2,0,2.01-0.81,2.01-1.76
			L118,95.64z"/>
		<path class="st0" d="M122.36,92.72c-0.23,0.02-0.29,0.02-0.31-0.29c0-0.14,0.04-0.19,0.27-0.25c0.74-0.17,1.98-0.52,2.83-0.87
			c0.1,0,0.25,0.06,0.25,0.17c-0.04,0.56-0.04,1.16-0.04,1.69c0.72-1.2,1.84-1.92,3.2-1.92c0.6,0,2.91,0.31,2.91,2.89
			c0,0.74-0.02,1.76-0.02,2.27v1.34c0,1.22,0,1.82,0.17,2.13c0.17,0.31,0.54,0.33,1.1,0.39c0.12,0.02,0.17,0.06,0.17,0.23
			c0,0.19-0.02,0.23-0.17,0.23c-0.66-0.02-1.41-0.06-2.05-0.06c-0.66,0-1.45,0.04-2.15,0.06c-0.14,0-0.17-0.04-0.17-0.23
			c0-0.19,0.04-0.23,0.17-0.23c0.5-0.04,0.89-0.06,1.05-0.39c0.21-0.33,0.19-0.95,0.19-2.13v-2.73c0-0.58,0.06-1.1-0.23-1.69
			c-0.29-0.62-0.79-1.05-1.72-1.05c-0.85,0-1.59,0.5-2.03,1.16c-0.39,0.58-0.43,0.97-0.43,1.61v2.71c0,1.22-0.02,1.84,0.12,2.13
			c0.17,0.33,0.56,0.33,1.16,0.39c0.12,0.02,0.17,0.04,0.17,0.23c0,0.19-0.04,0.23-0.17,0.23c-0.66-0.02-1.41-0.06-2.03-0.06
			c-0.68,0-1.47,0.04-2.15,0.06c-0.12,0-0.17-0.04-0.17-0.23c0-0.19,0.04-0.21,0.17-0.23c0.5-0.06,0.89-0.06,1.07-0.39
			c0.17-0.33,0.17-0.95,0.17-2.13v-2.96c0-0.74,0-1.32-0.17-1.7c-0.12-0.35-0.33-0.48-0.68-0.43L122.36,92.72z"/>
		<path class="st0" d="M143.32,96.13c0,2.71-1.82,4.94-4.55,4.94c-2.67,0-4.55-2.09-4.55-4.86c0-2.69,1.88-4.96,4.55-4.96
			C141.42,91.25,143.32,93.32,143.32,96.13z M136.17,96.17c0,2.52,0.81,4.3,2.6,4.3c1.76,0,2.63-1.92,2.63-4.3
			c0-2.54-0.81-4.32-2.63-4.32C137.02,91.85,136.17,93.76,136.17,96.17z"/>
		<path class="st0" d="M154.57,96.42c-1.47-0.7-2.27-1.12-2.27-2.79c0-1.12,0.89-2.4,2.94-2.4c0.48,0,1.03,0.1,1.39,0.19
			c0.39,0.06,0.81,0.06,1.3,0.04c0.04,0.68,0.1,1.59,0.19,2.27c0,0.12-0.04,0.17-0.23,0.19c-0.19,0.02-0.21-0.04-0.27-0.14
			c-0.43-1.1-1.24-1.98-2.34-1.98c-1.05,0-1.57,0.68-1.57,1.47c0,0.72,0.45,1.05,1.69,1.61l0.68,0.31c1.61,0.72,2.52,1.34,2.52,2.96
			c0,1.41-0.99,2.91-3.43,2.91c-1.03,0-1.84-0.21-2.67-0.56c-0.17-0.6-0.35-1.51-0.45-2.17c0-0.1,0.02-0.14,0.23-0.17
			c0.17-0.02,0.21-0.02,0.25,0.12c0.58,1.28,1.65,2.19,2.73,2.19c1.2,0,1.82-0.81,1.82-1.82c0-0.95-0.62-1.32-1.78-1.88
			L154.57,96.42z"/>
		<path class="st0" d="M162.28,96.13c0,2.63,1.7,3.99,3.06,3.99c1.3,0,2.09-0.45,2.81-1.45c0.04-0.06,0.1-0.1,0.17-0.1
			c0.08,0,0.35,0.14,0.35,0.31c0,0.06-0.02,0.08-0.1,0.21c-0.93,1.43-2.05,1.98-3.6,1.98c-2.71,0-4.55-2.05-4.55-4.84
			c0-2.71,1.86-4.98,4.53-4.98c2.6,0,3.76,2.27,3.82,3.66c0,0.14,0,0.21-0.1,0.35c-0.12,0.12-0.21,0.1-0.33,0.1
			c-2.03-0.06-4.18-0.08-6-0.04C162.32,95.49,162.28,95.76,162.28,96.13z M166.68,94.52c0.17,0,0.23-0.14,0.21-0.33
			c-0.1-1.1-0.66-2.34-1.94-2.34c-1.22,0-2.11,1.1-2.48,2.73C163.97,94.62,165.17,94.62,166.68,94.52z"/>
		<path class="st0" d="M172.98,95.86c0.35-0.33,0.68-0.62,1.07-1.01l1.16-1.16c0.64-0.64,0.93-1.01,0.83-1.32
			c-0.08-0.23-0.5-0.25-0.89-0.27c-0.12,0-0.17-0.02-0.17-0.27c0-0.19,0.04-0.23,0.17-0.23c0.62,0.02,1.38,0.02,1.98,0.02
			c0.6,0,1.28-0.04,1.84-0.06c0.12,0,0.17,0.04,0.17,0.25c0,0.23-0.04,0.27-0.17,0.27c-0.48,0.04-0.76,0.12-1.2,0.33
			c-0.39,0.19-0.74,0.48-1.63,1.28l-1.01,0.93c-0.31,0.29-0.48,0.43-0.72,0.66c1.07,1.3,2.17,2.6,3.25,3.82
			c0.37,0.39,0.72,0.74,1.1,0.95c0.31,0.15,0.58,0.17,0.95,0.21c0.14,0.02,0.19,0.04,0.19,0.25c0,0.19-0.04,0.23-0.19,0.23
			c-0.45,0-1.18-0.06-1.63-0.06c-0.48,0-0.85,0-1.34,0.02c-0.25-0.35-0.41-0.62-0.68-0.95c-1.1-1.32-1.96-2.36-3.06-3.7v1.72
			c0,1.2-0.02,1.8,0.12,2.13c0.14,0.29,0.58,0.31,1.18,0.37c0.12,0.02,0.17,0.08,0.17,0.25c0,0.19-0.04,0.23-0.17,0.23
			c-0.7-0.04-1.38-0.06-2.03-0.06c-0.66,0-1.51,0.02-2.19,0.06c-0.14,0-0.19-0.04-0.19-0.23c0-0.17,0.04-0.23,0.19-0.25
			c0.54-0.06,0.93-0.06,1.07-0.37c0.17-0.35,0.17-0.95,0.17-2.11v-9.2c0-0.72,0-1.36-0.15-1.72c-0.12-0.33-0.33-0.46-0.68-0.41
			l-0.48,0.04c-0.21,0.02-0.27,0-0.29-0.27c0-0.19,0.04-0.23,0.23-0.27c0.77-0.14,2.03-0.54,2.91-0.87c0.1,0,0.23,0.06,0.23,0.14
			c-0.06,1.47-0.1,3.04-0.1,4.96V95.86z"/>
		<path class="st0" d="M187.49,98.47c-0.02,1.28,0.29,1.78,0.79,1.78c0.21,0,0.35-0.06,0.56-0.19c0.08-0.04,0.19-0.04,0.27,0.1
			c0.1,0.17,0.08,0.23-0.04,0.31c-0.37,0.27-0.89,0.5-1.57,0.5c-0.74,0-1.3-0.41-1.53-1.05c-0.74,0.68-1.51,1.16-2.91,1.16
			c-1.86,0-2.46-1.2-2.46-2.13c0-0.87,0.23-1.32,0.7-1.8c0.54-0.54,1.24-0.72,2.48-1.12c0.85-0.27,1.3-0.45,1.61-0.7
			c0.27-0.21,0.48-0.52,0.48-0.81v-0.58c0-1.49-0.41-2.13-1.3-2.13c-0.48,0-0.89,0.1-1.26,0.48c-0.27,0.23-0.35,0.56-0.35,1.05
			c0,0.56-0.6,0.93-1.43,0.93c-0.46,0-0.64-0.21-0.64-0.6c0-0.95,1.55-2.42,3.82-2.42c2.81,0,2.85,1.43,2.83,3L187.49,98.47z
			 M185.86,95.64c-0.23,0.31-0.6,0.5-1.8,0.95c-1.18,0.41-1.65,1.1-1.65,2.07c0,1.03,0.76,1.63,1.43,1.63c1.2,0,2.01-0.81,2.01-1.76
			L185.86,95.64z"/>
		<path class="st0" d="M191.57,94.83c0-0.79-0.02-1.32-0.14-1.72c-0.12-0.33-0.35-0.45-0.74-0.41l-0.52,0.04
			c-0.21,0.02-0.27,0.02-0.29-0.27c0-0.21,0.04-0.23,0.25-0.27c0.72-0.19,2.07-0.58,2.91-0.89c0.12,0,0.25,0.06,0.25,0.19
			c-0.06,1.49-0.08,2.63-0.08,3.6v2.63c0,1.22,0,1.84,0.14,2.17c0.17,0.29,0.62,0.29,1.2,0.35c0.12,0.02,0.17,0.06,0.17,0.23
			c0,0.23-0.04,0.27-0.17,0.27c-0.66-0.02-1.47-0.06-2.09-0.06c-0.64,0-1.53,0.04-2.17,0.06c-0.14,0-0.19-0.04-0.19-0.27
			c0-0.17,0.04-0.23,0.19-0.23c0.52-0.06,0.93-0.08,1.12-0.35c0.19-0.35,0.17-0.99,0.17-2.17V94.83z M193.49,86.85
			c0,0.66-0.62,1.24-1.24,1.24c-0.62,0-1.24-0.58-1.24-1.24c0-0.64,0.62-1.24,1.24-1.24C192.87,85.61,193.49,86.21,193.49,86.85z"/>
	</g>
</g>
</svg>
